<?xml version="1.0" encoding="UTF-8"?>
<svg width="62px" height="26px" viewBox="0 0 62 26" version="1.1" xmlns="http://www.w3.org/2000/svg" xmlns:xlink="http://www.w3.org/1999/xlink">
    <!-- Generator: Sketch 59.1 (86144) - https://sketch.com -->
    <title>illust_glyde_BI</title>
    <desc>Created with Sketch.</desc>
    <g id="Graphic" stroke="none" stroke-width="1" fill="none" fill-rule="evenodd">
        <g id="illust-/-glyde_BI" fill="#000000">
            <g id="Group">
                <path d="M6.32845564,10.2785066 C7.46939279,10.2785066 8.41192331,10.7146846 9.1189532,11.5637832 L9.1189532,11.5637832 L9.25531651,11.5637832 L9.5405838,10.4524728 L11.4009595,10.4524728 L11.4009595,19.6798577 C11.4009595,22.3018432 9.77621643,24.0000403 6.83681489,24.0000403 C4.28194995,24.0000403 2.40929758,22.7264589 2.24811694,20.5413159 L2.24811694,20.5413159 L4.70371255,20.5413159 C4.8276672,21.3654293 5.68346907,21.889853 6.77490357,21.889853 C8.16388201,21.889853 9.00727522,21.0282618 9.00727522,19.7172026 L9.00727522,19.7172026 L9.00727522,18.8807295 C8.4863753,19.5549316 7.55625345,19.9669218 6.44000162,19.9669218 C3.88513668,19.9669218 1.99994364,17.9067049 1.99994364,15.0848377 C1.99994364,12.3129409 3.79827602,10.2785066 6.32845564,10.2785066 Z M20.2452488,10.4524462 L20.2452488,15.1722594 C20.2452488,16.7080526 21.0023093,17.6786218 22.1758522,17.6786218 C23.3619358,17.6786218 24.0811104,16.7080526 24.0811104,15.2347224 L24.0811104,15.2347224 L24.0811104,10.4524462 L26.6357113,10.4524462 L26.6357113,19.6673385 C26.6357113,22.4642205 24.8243102,24.0000137 22.1007402,24.0000137 C19.3897109,24.0000137 17.8406079,22.6407118 17.6906478,20.6054801 L17.6906478,20.6054801 L20.1517877,20.6054801 C20.3891365,21.4544458 21.013794,21.8898264 22.1382302,21.8898264 C23.4250352,21.8898264 24.224602,21.1406687 24.224602,19.7796391 L24.224602,19.7796391 L24.224602,18.5560281 L24.0871827,18.5560281 C23.4000859,19.4675897 22.450559,19.9385875 21.3011734,19.9385875 C19.0398922,19.9385875 17.6906478,18.2313532 17.6906478,15.5843825 L17.6906478,15.5843825 L17.6906478,10.4524462 L20.2452488,10.4524462 Z M37.4375862,6.41943405 L37.4375862,19.9670016 L35.5648019,19.9670016 L35.2795346,18.8681838 L35.0314933,18.8681838 C34.3866387,19.7172823 33.4812022,20.1408349 32.3525417,20.1408349 C29.8473114,20.1408349 28.0241617,18.0815483 28.0241617,15.2346958 C28.0241617,12.337873 29.8969461,10.2785863 32.4642197,10.2785863 C33.6176975,10.2785863 34.523002,10.6772866 35.0314933,11.4264443 L35.0314933,11.4264443 L35.0314933,6.41943405 L37.4375862,6.41943405 Z M43.6005874,10.2786395 C46.5772149,10.2786395 48.3259126,12.5376749 48.0406453,15.8216357 L48.0406453,15.8216357 L41.1822177,15.8216357 C41.3682157,17.3324437 42.2983376,18.1306415 43.6626307,18.1306415 C44.6672045,18.1306415 45.4485544,17.6944635 45.7710477,16.9577984 L45.7710477,16.9577984 L48.1026887,16.9577984 C47.6685174,18.9057148 45.944637,20.140888 43.650222,20.140888 C40.7480465,20.140888 38.8257594,18.1564242 38.8257594,15.2596013 C38.8257594,12.3629113 40.7356378,10.2786395 43.6005874,10.2786395 Z M15.8072765,6.41946063 L15.8072765,19.9670282 L13.3144549,19.9670282 L13.3144549,6.41946063 L15.8072765,6.41946063 Z M32.7618956,12.5010742 C31.3976025,12.5010742 30.4426633,13.5989617 30.4426633,15.197218 C30.4426633,16.7954743 31.3976025,17.9308396 32.7618956,17.9308396 C34.1013714,17.9308396 35.0314933,16.8204595 35.0314933,15.197218 C35.0314933,13.5741094 34.1013714,12.5010742 32.7618956,12.5010742 Z M6.73767757,12.4886348 C5.38579311,12.4886348 4.41844526,13.5990149 4.41844526,15.1223155 C4.41844526,16.6456161 5.37338445,17.7444339 6.73767757,17.7444339 C8.07715337,17.7444339 9.00727522,16.6706014 9.00727522,15.1223155 C9.00727522,13.5740297 8.07715337,12.4886348 6.73767757,12.4886348 Z M43.57577,12.226423 C42.4348329,12.226423 41.579031,12.9248128 41.2813551,14.1484238 L41.2813551,14.1484238 L45.7710477,14.1484238 C45.7338217,13.049606 44.8036999,12.226423 43.57577,12.226423 Z M57.9045968,2.02046826 C58.7712233,1.93102651 59.474953,2.13436362 59.8068188,2.6488198 C60.1305001,3.15065047 60.0370391,3.89329607 59.6033959,4.65401608 L59.6033959,4.65401608 L55.3593684,12.0812695 C54.9770759,12.745637 54.3217928,13.0889178 53.7313252,12.8241809 C52.4252472,12.2387561 52.9605358,9.324922 51.9624304,7.77756647 C50.9643249,6.23021093 48.1025435,5.53726996 48.1025435,4.09796218 C48.1025435,3.44728343 48.6806025,2.98412668 49.4388511,2.90279183 L49.4388511,2.90279183 Z" id="Combined-Shape"></path>
            </g>
        </g>
    </g>
</svg>